<svg width="1440" height="80" viewBox="0 0 1440 80" fill="none" xmlns="http://www.w3.org/2000/svg">
<path d="M0 0H1440V80H0V0Z" fill="white"/>
<path d="M679.801 36.3636C679.741 35.8598 679.5 35.4688 679.075 35.1903C678.651 34.9119 678.131 34.7727 677.514 34.7727C677.063 34.7727 676.669 34.8456 676.331 34.9915C675.996 35.1373 675.734 35.3378 675.545 35.593C675.36 35.8482 675.267 36.1383 675.267 36.4631C675.267 36.7348 675.332 36.9685 675.461 37.1641C675.594 37.3563 675.763 37.517 675.968 37.6463C676.174 37.7723 676.389 37.8767 676.614 37.9595C676.84 38.0391 677.047 38.1037 677.236 38.1534L678.27 38.4318C678.535 38.5014 678.83 38.5975 679.155 38.7202C679.483 38.8428 679.796 39.0102 680.094 39.2223C680.396 39.4311 680.645 39.6996 680.84 40.0277C681.036 40.3558 681.134 40.7585 681.134 41.2358C681.134 41.786 680.989 42.2831 680.701 42.7273C680.416 43.1714 679.998 43.5244 679.448 43.7862C678.901 44.0481 678.237 44.179 677.455 44.179C676.725 44.179 676.094 44.0613 675.56 43.826C675.03 43.5907 674.612 43.2625 674.308 42.8416C674.006 42.4207 673.835 41.9318 673.795 41.375H675.068C675.101 41.7595 675.231 42.0777 675.456 42.3295C675.685 42.5781 675.973 42.7637 676.321 42.8864C676.672 43.0057 677.05 43.0653 677.455 43.0653C677.925 43.0653 678.348 42.9891 678.722 42.8366C679.097 42.6809 679.393 42.4654 679.612 42.1903C679.831 41.9119 679.94 41.5871 679.94 41.2159C679.94 40.8778 679.846 40.6027 679.657 40.3906C679.468 40.1785 679.219 40.0062 678.911 39.8736C678.603 39.741 678.27 39.625 677.912 39.5256L676.659 39.1676C675.864 38.9389 675.234 38.6125 674.77 38.1882C674.306 37.764 674.074 37.2088 674.074 36.5227C674.074 35.9527 674.228 35.4555 674.536 35.0312C674.848 34.6037 675.265 34.2723 675.789 34.0369C676.316 33.7983 676.904 33.679 677.554 33.679C678.21 33.679 678.794 33.7966 679.304 34.032C679.814 34.264 680.219 34.5821 680.517 34.9865C680.819 35.3909 680.978 35.8499 680.994 36.3636H679.801ZM691.752 38.9091C691.752 39.983 691.558 40.911 691.17 41.6932C690.782 42.4754 690.25 43.0786 689.574 43.5028C688.898 43.9271 688.126 44.1392 687.257 44.1392C686.389 44.1392 685.617 43.9271 684.941 43.5028C684.264 43.0786 683.732 42.4754 683.345 41.6932C682.957 40.911 682.763 39.983 682.763 38.9091C682.763 37.8352 682.957 36.9072 683.345 36.125C683.732 35.3428 684.264 34.7396 684.941 34.3153C685.617 33.8911 686.389 33.679 687.257 33.679C688.126 33.679 688.898 33.8911 689.574 34.3153C690.25 34.7396 690.782 35.3428 691.17 36.125C691.558 36.9072 691.752 37.8352 691.752 38.9091ZM690.558 38.9091C690.558 38.0275 690.411 37.2834 690.116 36.6768C689.824 36.0703 689.428 35.6113 688.928 35.2997C688.431 34.9882 687.874 34.8324 687.257 34.8324C686.641 34.8324 686.082 34.9882 685.582 35.2997C685.085 35.6113 684.689 36.0703 684.394 36.6768C684.102 37.2834 683.956 38.0275 683.956 38.9091C683.956 39.7907 684.102 40.5348 684.394 41.1413C684.689 41.7479 685.085 42.2069 685.582 42.5185C686.082 42.83 686.641 42.9858 687.257 42.9858C687.874 42.9858 688.431 42.83 688.928 42.5185C689.428 42.2069 689.824 41.7479 690.116 41.1413C690.411 40.5348 690.558 39.7907 690.558 38.9091ZM693.825 44V33.8182H695.058V42.9062H699.791V44H693.825ZM708.382 33.8182H709.615V40.5597C709.615 41.2557 709.45 41.8771 709.122 42.424C708.798 42.9676 708.338 43.3968 707.745 43.7116C707.152 44.0232 706.456 44.179 705.657 44.179C704.858 44.179 704.162 44.0232 703.569 43.7116C702.976 43.3968 702.515 42.9676 702.187 42.424C701.862 41.8771 701.7 41.2557 701.7 40.5597V33.8182H702.933V40.4602C702.933 40.9574 703.042 41.3999 703.261 41.7876C703.48 42.1721 703.791 42.4754 704.195 42.6974C704.603 42.9162 705.09 43.0256 705.657 43.0256C706.224 43.0256 706.711 42.9162 707.119 42.6974C707.526 42.4754 707.838 42.1721 708.053 41.7876C708.272 41.3999 708.382 40.9574 708.382 40.4602V33.8182ZM711.52 34.9119V33.8182H719.156V34.9119H715.955V44H714.722V34.9119H711.52ZM722.292 33.8182V44H721.059V33.8182H722.292ZM733.355 38.9091C733.355 39.983 733.161 40.911 732.773 41.6932C732.386 42.4754 731.854 43.0786 731.178 43.5028C730.501 43.9271 729.729 44.1392 728.861 44.1392C727.992 44.1392 727.22 43.9271 726.544 43.5028C725.868 43.0786 725.336 42.4754 724.948 41.6932C724.56 40.911 724.366 39.983 724.366 38.9091C724.366 37.8352 724.56 36.9072 724.948 36.125C725.336 35.3428 725.868 34.7396 726.544 34.3153C727.22 33.8911 727.992 33.679 728.861 33.679C729.729 33.679 730.501 33.8911 731.178 34.3153C731.854 34.7396 732.386 35.3428 732.773 36.125C733.161 36.9072 733.355 37.8352 733.355 38.9091ZM732.162 38.9091C732.162 38.0275 732.014 37.2834 731.719 36.6768C731.428 36.0703 731.032 35.6113 730.531 35.2997C730.034 34.9882 729.477 34.8324 728.861 34.8324C728.244 34.8324 727.686 34.9882 727.185 35.2997C726.688 35.6113 726.292 36.0703 725.997 36.6768C725.705 37.2834 725.56 38.0275 725.56 38.9091C725.56 39.7907 725.705 40.5348 725.997 41.1413C726.292 41.7479 726.688 42.2069 727.185 42.5185C727.686 42.83 728.244 42.9858 728.861 42.9858C729.477 42.9858 730.034 42.83 730.531 42.5185C731.032 42.2069 731.428 41.7479 731.719 41.1413C732.014 40.5348 732.162 39.7907 732.162 38.9091ZM743.502 33.8182V44H742.309L736.761 36.0057H736.661V44H735.428V33.8182H736.621L742.19 41.8324H742.289V33.8182H743.502ZM751.537 36.3636C751.478 35.8598 751.236 35.4688 750.812 35.1903C750.387 34.9119 749.867 34.7727 749.251 34.7727C748.8 34.7727 748.405 34.8456 748.067 34.9915C747.733 35.1373 747.471 35.3378 747.282 35.593C747.096 35.8482 747.003 36.1383 747.003 36.4631C747.003 36.7348 747.068 36.9685 747.197 37.1641C747.33 37.3563 747.499 37.517 747.704 37.6463C747.91 37.7723 748.125 37.8767 748.351 37.9595C748.576 38.0391 748.783 38.1037 748.972 38.1534L750.006 38.4318C750.271 38.5014 750.566 38.5975 750.891 38.7202C751.219 38.8428 751.532 39.0102 751.831 39.2223C752.132 39.4311 752.381 39.6996 752.577 40.0277C752.772 40.3558 752.87 40.7585 752.87 41.2358C752.87 41.786 752.726 42.2831 752.437 42.7273C752.152 43.1714 751.735 43.5244 751.184 43.7862C750.638 44.0481 749.973 44.179 749.191 44.179C748.462 44.179 747.83 44.0613 747.297 43.826C746.766 43.5907 746.349 43.2625 746.044 42.8416C745.742 42.4207 745.572 41.9318 745.532 41.375H746.805C746.838 41.7595 746.967 42.0777 747.192 42.3295C747.421 42.5781 747.709 42.7637 748.057 42.8864C748.409 43.0057 748.787 43.0653 749.191 43.0653C749.662 43.0653 750.084 42.9891 750.459 42.8366C750.833 42.6809 751.13 42.4654 751.349 42.1903C751.567 41.9119 751.677 41.5871 751.677 41.2159C751.677 40.8778 751.582 40.6027 751.393 40.3906C751.204 40.1785 750.956 40.0062 750.648 39.8736C750.339 39.741 750.006 39.625 749.648 39.5256L748.395 39.1676C747.6 38.9389 746.97 38.6125 746.506 38.1882C746.042 37.764 745.81 37.2088 745.81 36.5227C745.81 35.9527 745.964 35.4555 746.273 35.0312C746.584 34.6037 747.002 34.2723 747.525 34.0369C748.052 33.7983 748.641 33.679 749.29 33.679C749.947 33.679 750.53 33.7966 751.04 34.032C751.551 34.264 751.955 34.5821 752.253 34.9865C752.555 35.3909 752.714 35.8499 752.731 36.3636H751.537Z" fill="black"/>
<g clip-path="url(#clip0_1_3)">
<path d="M771 37L766 42L761 37" stroke="#070847" stroke-width="1.5"/>
</g>
<path d="M907.801 36.3636C907.741 35.8598 907.5 35.4688 907.075 35.1903C906.651 34.9119 906.131 34.7727 905.514 34.7727C905.063 34.7727 904.669 34.8456 904.331 34.9915C903.996 35.1373 903.734 35.3378 903.545 35.593C903.36 35.8482 903.267 36.1383 903.267 36.4631C903.267 36.7348 903.332 36.9685 903.461 37.1641C903.594 37.3563 903.763 37.517 903.968 37.6463C904.174 37.7723 904.389 37.8767 904.614 37.9595C904.84 38.0391 905.047 38.1037 905.236 38.1534L906.27 38.4318C906.535 38.5014 906.83 38.5975 907.155 38.7202C907.483 38.8428 907.796 39.0102 908.094 39.2223C908.396 39.4311 908.645 39.6996 908.84 40.0277C909.036 40.3558 909.134 40.7585 909.134 41.2358C909.134 41.786 908.989 42.2831 908.701 42.7273C908.416 43.1714 907.998 43.5244 907.448 43.7862C906.901 44.0481 906.237 44.179 905.455 44.179C904.725 44.179 904.094 44.0613 903.56 43.826C903.03 43.5907 902.612 43.2625 902.308 42.8416C902.006 42.4207 901.835 41.9318 901.795 41.375H903.068C903.101 41.7595 903.231 42.0777 903.456 42.3295C903.685 42.5781 903.973 42.7637 904.321 42.8864C904.672 43.0057 905.05 43.0653 905.455 43.0653C905.925 43.0653 906.348 42.9891 906.722 42.8366C907.097 42.6809 907.393 42.4654 907.612 42.1903C907.831 41.9119 907.94 41.5871 907.94 41.2159C907.94 40.8778 907.846 40.6027 907.657 40.3906C907.468 40.1785 907.219 40.0062 906.911 39.8736C906.603 39.741 906.27 39.625 905.912 39.5256L904.659 39.1676C903.864 38.9389 903.234 38.6125 902.77 38.1882C902.306 37.764 902.074 37.2088 902.074 36.5227C902.074 35.9527 902.228 35.4555 902.536 35.0312C902.848 34.6037 903.265 34.2723 903.789 34.0369C904.316 33.7983 904.904 33.679 905.554 33.679C906.21 33.679 906.794 33.7966 907.304 34.032C907.814 34.264 908.219 34.5821 908.517 34.9865C908.819 35.3909 908.978 35.8499 908.994 36.3636H907.801ZM917.843 33.8182H919.075V40.5597C919.075 41.2557 918.911 41.8771 918.583 42.424C918.258 42.9676 917.799 43.3968 917.206 43.7116C916.613 44.0232 915.917 44.179 915.118 44.179C914.319 44.179 913.623 44.0232 913.03 43.7116C912.437 43.3968 911.976 42.9676 911.648 42.424C911.323 41.8771 911.161 41.2557 911.161 40.5597V33.8182H912.394V40.4602C912.394 40.9574 912.503 41.3999 912.722 41.7876C912.941 42.1721 913.252 42.4754 913.656 42.6974C914.064 42.9162 914.551 43.0256 915.118 43.0256C915.685 43.0256 916.172 42.9162 916.58 42.6974C916.987 42.4754 917.299 42.1721 917.514 41.7876C917.733 41.3999 917.843 40.9574 917.843 40.4602V33.8182ZM921.538 44V33.8182H924.978C925.777 33.8182 926.43 33.9624 926.937 34.2507C927.447 34.5357 927.825 34.9219 928.07 35.4091C928.316 35.8963 928.438 36.4399 928.438 37.0398C928.438 37.6397 928.316 38.1849 928.07 38.6754C927.828 39.166 927.454 39.5571 926.947 39.8487C926.44 40.1371 925.79 40.2812 924.998 40.2812H922.532V39.1875H924.958C925.505 39.1875 925.944 39.093 926.276 38.9041C926.607 38.7152 926.847 38.46 926.996 38.1385C927.149 37.8137 927.225 37.4474 927.225 37.0398C927.225 36.6321 927.149 36.2675 926.996 35.946C926.847 35.6245 926.605 35.3726 926.271 35.1903C925.936 35.0047 925.492 34.9119 924.938 34.9119H922.771V44H921.538ZM930.424 44V33.8182H933.865C934.663 33.8182 935.316 33.9624 935.824 34.2507C936.334 34.5357 936.712 34.9219 936.957 35.4091C937.202 35.8963 937.325 36.4399 937.325 37.0398C937.325 37.6397 937.202 38.1849 936.957 38.6754C936.715 39.166 936.341 39.5571 935.833 39.8487C935.326 40.1371 934.677 40.2812 933.885 40.2812H931.419V39.1875H933.845C934.392 39.1875 934.831 39.093 935.162 38.9041C935.494 38.7152 935.734 38.46 935.883 38.1385C936.036 37.8137 936.112 37.4474 936.112 37.0398C936.112 36.6321 936.036 36.2675 935.883 35.946C935.734 35.6245 935.492 35.3726 935.157 35.1903C934.823 35.0047 934.378 34.9119 933.825 34.9119H931.657V44H930.424ZM947.902 38.9091C947.902 39.983 947.708 40.911 947.32 41.6932C946.933 42.4754 946.401 43.0786 945.724 43.5028C945.048 43.9271 944.276 44.1392 943.408 44.1392C942.539 44.1392 941.767 43.9271 941.091 43.5028C940.415 43.0786 939.883 42.4754 939.495 41.6932C939.107 40.911 938.913 39.983 938.913 38.9091C938.913 37.8352 939.107 36.9072 939.495 36.125C939.883 35.3428 940.415 34.7396 941.091 34.3153C941.767 33.8911 942.539 33.679 943.408 33.679C944.276 33.679 945.048 33.8911 945.724 34.3153C946.401 34.7396 946.933 35.3428 947.32 36.125C947.708 36.9072 947.902 37.8352 947.902 38.9091ZM946.709 38.9091C946.709 38.0275 946.561 37.2834 946.266 36.6768C945.975 36.0703 945.579 35.6113 945.078 35.2997C944.581 34.9882 944.024 34.8324 943.408 34.8324C942.791 34.8324 942.233 34.9882 941.732 35.2997C941.235 35.6113 940.839 36.0703 940.544 36.6768C940.252 37.2834 940.107 38.0275 940.107 38.9091C940.107 39.7907 940.252 40.5348 940.544 41.1413C940.839 41.7479 941.235 42.2069 941.732 42.5185C942.233 42.83 942.791 42.9858 943.408 42.9858C944.024 42.9858 944.581 42.83 945.078 42.5185C945.579 42.2069 945.975 41.7479 946.266 41.1413C946.561 40.5348 946.709 39.7907 946.709 38.9091ZM949.975 44V33.8182H953.415C954.211 33.8182 954.864 33.9541 955.374 34.2259C955.885 34.4943 956.263 34.8639 956.508 35.3345C956.753 35.8052 956.876 36.3404 956.876 36.9403C956.876 37.5402 956.753 38.0722 956.508 38.5362C956.263 39.0002 955.886 39.3648 955.379 39.63C954.872 39.8918 954.224 40.0227 953.435 40.0227H950.651V38.9091H953.396C953.939 38.9091 954.377 38.8295 954.708 38.6705C955.043 38.5114 955.285 38.286 955.434 37.9943C955.586 37.6993 955.663 37.348 955.663 36.9403C955.663 36.5327 955.586 36.1764 955.434 35.8714C955.281 35.5665 955.038 35.3312 954.703 35.1655C954.368 34.9964 953.926 34.9119 953.376 34.9119H951.208V44H949.975ZM954.768 39.4261L957.273 44H955.842L953.376 39.4261H954.768ZM958.373 34.9119V33.8182H966.01V34.9119H962.808V44H961.575V34.9119H958.373Z" fill="black"/>
<path d="M529.651 44H528.358L532.097 33.8182H533.369L537.108 44H535.815L532.773 35.429H532.693L529.651 44ZM530.128 40.0227H535.338V41.1165H530.128V40.0227ZM538.694 44V33.8182H539.927V42.9062H544.66V44H538.694ZM546.569 44V33.8182H547.802V42.9062H552.535V44H546.569ZM558.381 44V33.8182H561.822C562.621 33.8182 563.273 33.9624 563.781 34.2507C564.291 34.5357 564.669 34.9219 564.914 35.4091C565.159 35.8963 565.282 36.4399 565.282 37.0398C565.282 37.6397 565.159 38.1849 564.914 38.6754C564.672 39.166 564.298 39.5571 563.79 39.8487C563.283 40.1371 562.634 40.2812 561.842 40.2812H559.376V39.1875H561.802C562.349 39.1875 562.788 39.093 563.119 38.9041C563.451 38.7152 563.691 38.46 563.84 38.1385C563.993 37.8137 564.069 37.4474 564.069 37.0398C564.069 36.6321 563.993 36.2675 563.84 35.946C563.691 35.6245 563.449 35.3726 563.114 35.1903C562.78 35.0047 562.335 34.9119 561.782 34.9119H559.614V44H558.381ZM567.268 44V33.8182H570.708C571.504 33.8182 572.157 33.9541 572.667 34.2259C573.178 34.4943 573.556 34.8639 573.801 35.3345C574.046 35.8052 574.169 36.3404 574.169 36.9403C574.169 37.5402 574.046 38.0722 573.801 38.5362C573.556 39.0002 573.179 39.3648 572.672 39.63C572.165 39.8918 571.517 40.0227 570.728 40.0227H567.944V38.9091H570.689C571.232 38.9091 571.67 38.8295 572.001 38.6705C572.336 38.5114 572.578 38.286 572.727 37.9943C572.879 37.6993 572.956 37.348 572.956 36.9403C572.956 36.5327 572.879 36.1764 572.727 35.8714C572.574 35.5665 572.331 35.3312 571.996 35.1655C571.661 34.9964 571.219 34.9119 570.669 34.9119H568.501V44H567.268ZM572.061 39.4261L574.566 44H573.135L570.669 39.4261H572.061ZM584.814 38.9091C584.814 39.983 584.62 40.911 584.232 41.6932C583.845 42.4754 583.313 43.0786 582.637 43.5028C581.96 43.9271 581.188 44.1392 580.32 44.1392C579.451 44.1392 578.679 43.9271 578.003 43.5028C577.327 43.0786 576.795 42.4754 576.407 41.6932C576.019 40.911 575.825 39.983 575.825 38.9091C575.825 37.8352 576.019 36.9072 576.407 36.125C576.795 35.3428 577.327 34.7396 578.003 34.3153C578.679 33.8911 579.451 33.679 580.32 33.679C581.188 33.679 581.96 33.8911 582.637 34.3153C583.313 34.7396 583.845 35.3428 584.232 36.125C584.62 36.9072 584.814 37.8352 584.814 38.9091ZM583.621 38.9091C583.621 38.0275 583.473 37.2834 583.178 36.6768C582.887 36.0703 582.491 35.6113 581.99 35.2997C581.493 34.9882 580.936 34.8324 580.32 34.8324C579.703 34.8324 579.145 34.9882 578.644 35.2997C578.147 35.6113 577.751 36.0703 577.456 36.6768C577.164 37.2834 577.019 38.0275 577.019 38.9091C577.019 39.7907 577.164 40.5348 577.456 41.1413C577.751 41.7479 578.147 42.2069 578.644 42.5185C579.145 42.83 579.703 42.9858 580.32 42.9858C580.936 42.9858 581.493 42.83 581.99 42.5185C582.491 42.2069 582.887 41.7479 583.178 41.1413C583.473 40.5348 583.621 39.7907 583.621 38.9091ZM590.029 44H586.887V33.8182H590.169C591.156 33.8182 592.001 34.022 592.704 34.4297C593.407 34.834 593.945 35.4157 594.32 36.1747C594.694 36.9304 594.882 37.8352 594.882 38.8892C594.882 39.9498 594.693 40.8629 594.315 41.6286C593.937 42.3909 593.387 42.9775 592.664 43.3885C591.942 43.7962 591.063 44 590.029 44ZM588.12 42.9062H589.95C590.792 42.9062 591.489 42.7438 592.043 42.419C592.596 42.0942 593.009 41.6319 593.281 41.032C593.552 40.4321 593.688 39.7178 593.688 38.8892C593.688 38.0672 593.554 37.3596 593.286 36.7663C593.017 36.1697 592.616 35.7124 592.083 35.3942C591.549 35.0727 590.884 34.9119 590.089 34.9119H588.12V42.9062ZM603.632 33.8182H604.865V40.5597C604.865 41.2557 604.7 41.8771 604.372 42.424C604.048 42.9676 603.588 43.3968 602.995 43.7116C602.402 44.0232 601.706 44.179 600.907 44.179C600.108 44.179 599.412 44.0232 598.819 43.7116C598.226 43.3968 597.765 42.9676 597.437 42.424C597.112 41.8771 596.95 41.2557 596.95 40.5597V33.8182H598.183V40.4602C598.183 40.9574 598.292 41.3999 598.511 41.7876C598.73 42.1721 599.041 42.4754 599.445 42.6974C599.853 42.9162 600.34 43.0256 600.907 43.0256C601.474 43.0256 601.961 42.9162 602.369 42.6974C602.776 42.4754 603.088 42.1721 603.303 41.7876C603.522 41.3999 603.632 40.9574 603.632 40.4602V33.8182ZM615.52 37H614.287C614.214 36.6454 614.086 36.3338 613.904 36.0653C613.725 35.7969 613.506 35.5715 613.248 35.3892C612.993 35.2036 612.709 35.0644 612.398 34.9716C612.086 34.8788 611.761 34.8324 611.423 34.8324C610.807 34.8324 610.248 34.9882 609.748 35.2997C609.251 35.6113 608.855 36.0703 608.56 36.6768C608.268 37.2834 608.122 38.0275 608.122 38.9091C608.122 39.7907 608.268 40.5348 608.56 41.1413C608.855 41.7479 609.251 42.2069 609.748 42.5185C610.248 42.83 610.807 42.9858 611.423 42.9858C611.761 42.9858 612.086 42.9394 612.398 42.8466C612.709 42.7538 612.993 42.6162 613.248 42.4339C613.506 42.2483 613.725 42.0213 613.904 41.7528C614.086 41.4811 614.214 41.1695 614.287 40.8182H615.52C615.427 41.3385 615.258 41.8042 615.013 42.2152C614.768 42.6262 614.463 42.9759 614.098 43.2642C613.733 43.5492 613.324 43.7663 612.87 43.9155C612.419 44.0646 611.937 44.1392 611.423 44.1392C610.555 44.1392 609.783 43.9271 609.107 43.5028C608.43 43.0786 607.898 42.4754 607.511 41.6932C607.123 40.911 606.929 39.983 606.929 38.9091C606.929 37.8352 607.123 36.9072 607.511 36.125C607.898 35.3428 608.43 34.7396 609.107 34.3153C609.783 33.8911 610.555 33.679 611.423 33.679C611.937 33.679 612.419 33.7536 612.87 33.9027C613.324 34.0518 613.733 34.2706 614.098 34.5589C614.463 34.844 614.768 35.192 615.013 35.603C615.258 36.0107 615.427 36.4763 615.52 37ZM616.955 34.9119V33.8182H624.592V34.9119H621.39V44H620.157V34.9119H616.955ZM632.063 36.3636C632.003 35.8598 631.761 35.4688 631.337 35.1903C630.913 34.9119 630.392 34.7727 629.776 34.7727C629.325 34.7727 628.931 34.8456 628.593 34.9915C628.258 35.1373 627.996 35.3378 627.807 35.593C627.622 35.8482 627.529 36.1383 627.529 36.4631C627.529 36.7348 627.593 36.9685 627.723 37.1641C627.855 37.3563 628.024 37.517 628.23 37.6463C628.435 37.7723 628.651 37.8767 628.876 37.9595C629.101 38.0391 629.309 38.1037 629.498 38.1534L630.532 38.4318C630.797 38.5014 631.092 38.5975 631.417 38.7202C631.745 38.8428 632.058 39.0102 632.356 39.2223C632.658 39.4311 632.906 39.6996 633.102 40.0277C633.297 40.3558 633.395 40.7585 633.395 41.2358C633.395 41.786 633.251 42.2831 632.963 42.7273C632.678 43.1714 632.26 43.5244 631.71 43.7862C631.163 44.0481 630.498 44.179 629.716 44.179C628.987 44.179 628.356 44.0613 627.822 43.826C627.292 43.5907 626.874 43.2625 626.569 42.8416C626.268 42.4207 626.097 41.9318 626.057 41.375H627.33C627.363 41.7595 627.492 42.0777 627.718 42.3295C627.946 42.5781 628.235 42.7637 628.583 42.8864C628.934 43.0057 629.312 43.0653 629.716 43.0653C630.187 43.0653 630.609 42.9891 630.984 42.8366C631.359 42.6809 631.655 42.4654 631.874 42.1903C632.093 41.9119 632.202 41.5871 632.202 41.2159C632.202 40.8778 632.108 40.6027 631.919 40.3906C631.73 40.1785 631.481 40.0062 631.173 39.8736C630.865 39.741 630.532 39.625 630.174 39.5256L628.921 39.1676C628.125 38.9389 627.496 38.6125 627.032 38.1882C626.568 37.764 626.336 37.2088 626.336 36.5227C626.336 35.9527 626.49 35.4555 626.798 35.0312C627.109 34.6037 627.527 34.2723 628.051 34.0369C628.578 33.7983 629.166 33.679 629.816 33.679C630.472 33.679 631.055 33.7966 631.566 34.032C632.076 34.264 632.48 34.5821 632.779 34.9865C633.08 35.3909 633.239 35.8499 633.256 36.3636H632.063Z" fill="black"/>
<path d="M807.651 44H806.358L810.097 33.8182H811.369L815.108 44H813.815L810.773 35.429H810.693L807.651 44ZM808.128 40.0227H813.338V41.1165H808.128V40.0227ZM816.694 44V33.8182H820.254C820.963 33.8182 821.548 33.9408 822.009 34.1861C822.469 34.428 822.812 34.7545 823.038 35.1655C823.263 35.5732 823.376 36.0256 823.376 36.5227C823.376 36.9602 823.298 37.3215 823.142 37.6065C822.99 37.8916 822.787 38.117 822.536 38.2827C822.287 38.4484 822.017 38.571 821.725 38.6506V38.75C822.037 38.7699 822.35 38.8793 822.665 39.0781C822.98 39.277 823.243 39.562 823.455 39.9332C823.667 40.3045 823.773 40.7585 823.773 41.2955C823.773 41.8059 823.657 42.2649 823.425 42.6726C823.193 43.0803 822.827 43.4034 822.327 43.642C821.826 43.8807 821.175 44 820.373 44H816.694ZM817.927 42.9062H820.373C821.178 42.9062 821.75 42.7505 822.088 42.4389C822.429 42.1241 822.6 41.7429 822.6 41.2955C822.6 40.9508 822.512 40.6326 822.337 40.3409C822.161 40.0459 821.911 39.8106 821.586 39.6349C821.261 39.456 820.877 39.3665 820.433 39.3665H817.927V42.9062ZM817.927 38.2926H820.214C820.585 38.2926 820.92 38.2197 821.218 38.0739C821.52 37.928 821.758 37.7225 821.934 37.4574C822.113 37.1922 822.202 36.8807 822.202 36.5227C822.202 36.0753 822.047 35.6958 821.735 35.3842C821.424 35.0694 820.93 34.9119 820.254 34.9119H817.927V38.2926ZM834.39 38.9091C834.39 39.983 834.196 40.911 833.809 41.6932C833.421 42.4754 832.889 43.0786 832.213 43.5028C831.537 43.9271 830.764 44.1392 829.896 44.1392C829.028 44.1392 828.255 43.9271 827.579 43.5028C826.903 43.0786 826.371 42.4754 825.983 41.6932C825.596 40.911 825.402 39.983 825.402 38.9091C825.402 37.8352 825.596 36.9072 825.983 36.125C826.371 35.3428 826.903 34.7396 827.579 34.3153C828.255 33.8911 829.028 33.679 829.896 33.679C830.764 33.679 831.537 33.8911 832.213 34.3153C832.889 34.7396 833.421 35.3428 833.809 36.125C834.196 36.9072 834.39 37.8352 834.39 38.9091ZM833.197 38.9091C833.197 38.0275 833.05 37.2834 832.755 36.6768C832.463 36.0703 832.067 35.6113 831.566 35.2997C831.069 34.9882 830.512 34.8324 829.896 34.8324C829.279 34.8324 828.721 34.9882 828.221 35.2997C827.723 35.6113 827.327 36.0703 827.032 36.6768C826.741 37.2834 826.595 38.0275 826.595 38.9091C826.595 39.7907 826.741 40.5348 827.032 41.1413C827.327 41.7479 827.723 42.2069 828.221 42.5185C828.721 42.83 829.279 42.9858 829.896 42.9858C830.512 42.9858 831.069 42.83 831.566 42.5185C832.067 42.2069 832.463 41.7479 832.755 41.1413C833.05 40.5348 833.197 39.7907 833.197 38.9091ZM843.145 33.8182H844.378V40.5597C844.378 41.2557 844.214 41.8771 843.886 42.424C843.561 42.9676 843.102 43.3968 842.509 43.7116C841.916 44.0232 841.22 44.179 840.421 44.179C839.622 44.179 838.926 44.0232 838.333 43.7116C837.739 43.3968 837.279 42.9676 836.951 42.424C836.626 41.8771 836.463 41.2557 836.463 40.5597V33.8182H837.696V40.4602C837.696 40.9574 837.806 41.3999 838.025 41.7876C838.243 42.1721 838.555 42.4754 838.959 42.6974C839.367 42.9162 839.854 43.0256 840.421 43.0256C840.988 43.0256 841.475 42.9162 841.882 42.6974C842.29 42.4754 842.602 42.1721 842.817 41.7876C843.036 41.3999 843.145 40.9574 843.145 40.4602V33.8182ZM846.284 34.9119V33.8182H853.92V34.9119H850.718V44H849.485V34.9119H846.284Z" fill="black"/>
<path d="M1281 47C1285.42 47 1289 43.4183 1289 39C1289 34.5817 1285.42 31 1281 31C1276.58 31 1273 34.5817 1273 39C1273 43.4183 1276.58 47 1281 47Z" stroke="black" stroke-width="2" stroke-linecap="round" stroke-linejoin="round"/>
<path d="M1291 48.9999L1286.65 44.6499" stroke="black" stroke-width="2" stroke-linecap="round" stroke-linejoin="round"/>
<path d="M1324 50C1324.55 50 1325 49.5523 1325 49C1325 48.4477 1324.55 48 1324 48C1323.45 48 1323 48.4477 1323 49C1323 49.5523 1323.45 50 1324 50Z" stroke="black" stroke-width="2" stroke-linecap="round" stroke-linejoin="round"/>
<path d="M1335 50C1335.55 50 1336 49.5523 1336 49C1336 48.4477 1335.55 48 1335 48C1334.45 48 1334 48.4477 1334 49C1334 49.5523 1334.45 50 1335 50Z" stroke="black" stroke-width="2" stroke-linecap="round" stroke-linejoin="round"/>
<path d="M1316 29H1320L1322.68 42.39C1322.77 42.8504 1323.02 43.264 1323.39 43.5583C1323.75 43.8526 1324.21 44.009 1324.68 44H1334.4C1334.87 44.009 1335.33 43.8526 1335.69 43.5583C1336.06 43.264 1336.31 42.8504 1336.4 42.39L1338 34H1321" stroke="black" stroke-width="2" stroke-linecap="round" stroke-linejoin="round"/>
<g clip-path="url(#clip1_1_3)">
<path d="M83.575 50.9428C82.0683 50.9428 80.6732 50.6857 79.3897 50.1715C78.1062 49.6381 76.9808 48.9048 76.0135 47.9714C75.0648 47.0191 74.3207 45.9047 73.7813 44.6286C73.2604 43.3524 73 41.9714 73 40.4857C73 38.981 73.2604 37.6 73.7813 36.3429C74.3207 35.0667 75.0648 33.9619 76.0135 33.0286C76.9808 32.0952 78.0969 31.3619 79.3618 30.8286C80.6453 30.2952 82.0311 30.0286 83.5192 30.0286C85.0817 30.0286 86.4862 30.2857 87.7325 30.8C88.9788 31.2952 90.0764 31.9905 91.025 32.8857L87.6767 36.3143C87.2116 35.781 86.635 35.3619 85.9468 35.0571C85.2585 34.7524 84.4494 34.6 83.5192 34.6C82.7194 34.6 81.9846 34.7333 81.3149 35C80.6639 35.2667 80.0965 35.6667 79.6129 36.2C79.1292 36.7143 78.7479 37.3333 78.4689 38.0571C78.2085 38.7809 78.0782 39.5905 78.0782 40.4857C78.0782 41.3809 78.2085 42.1905 78.4689 42.9143C78.7479 43.6381 79.1292 44.2666 79.6129 44.8C80.0965 45.3142 80.6639 45.7143 81.3149 46C81.9846 46.2667 82.7194 46.4 83.5192 46.4C84.4494 46.4 85.2678 46.2572 85.9747 45.9715C86.6815 45.6667 87.2861 45.2381 87.7883 44.6857L91.1367 48.1143C90.1693 49.0095 89.0719 49.7048 87.8441 50.2C86.635 50.6952 85.212 50.9428 83.575 50.9428Z" fill="black"/>
<path d="M91.3544 50.6286L99.0276 30.3714H103.855L111.444 50.6286H106.226L100.506 33.6H102.32L96.4606 50.6286H91.3544Z" fill="black"/>
<path d="M113.296 50.6286V30.3714H118.291V50.6286H113.296ZM117.258 50.6286V46.2286H126.801V50.6286H117.258Z" fill="black"/>
<path d="M129.128 50.6286V30.3714H134.122V50.6286H129.128Z" fill="black"/>
<path d="M137.629 50.6286V30.3714H142.624V50.6286H137.629ZM141.591 43.0571V38.7429H151.385V43.0571H141.591ZM141.591 34.6857V30.3714H151.831V34.6857H141.591Z" fill="black"/>
<path d="M163.85 51C162.324 51 160.92 50.7333 159.637 50.2C158.353 49.6667 157.228 48.9238 156.26 47.9714C155.312 47.0191 154.568 45.9047 154.028 44.6286C153.489 43.3334 153.219 41.9429 153.219 40.4571C153.219 38.9714 153.479 37.6 154 36.3429C154.54 35.0667 155.284 33.9524 156.232 33C157.181 32.0476 158.297 31.3143 159.581 30.8C160.864 30.2667 162.269 30 163.794 30C165.319 30 166.724 30.2667 168.007 30.8C169.29 31.3143 170.407 32.0476 171.356 33C172.304 33.9524 173.039 35.0667 173.56 36.3429C174.099 37.619 174.369 39 174.369 40.4857C174.369 41.9714 174.099 43.3524 173.56 44.6286C173.039 45.9047 172.304 47.0286 171.356 48C170.407 48.9524 169.29 49.6952 168.007 50.2285C166.742 50.7428 165.357 51 163.85 51ZM163.794 46.4286C164.91 46.4286 165.877 46.181 166.696 45.6858C167.514 45.1904 168.146 44.4952 168.594 43.6C169.04 42.7048 169.263 41.6571 169.263 40.4571C169.263 39.581 169.133 38.7809 168.872 38.0571C168.63 37.3333 168.268 36.7143 167.784 36.2C167.3 35.6667 166.724 35.2571 166.054 34.9714C165.384 34.6857 164.631 34.5429 163.794 34.5429C162.678 34.5429 161.711 34.7905 160.892 35.2857C160.074 35.7619 159.441 36.4476 158.995 37.3429C158.548 38.2381 158.325 39.2762 158.325 40.4571C158.325 41.3714 158.446 42.2 158.688 42.9429C158.948 43.6667 159.32 44.2953 159.804 44.8286C160.288 45.3429 160.864 45.7428 161.534 46.0285C162.204 46.2952 162.957 46.4286 163.794 46.4286Z" fill="black"/>
<path d="M180.829 42.4286V38.7714H184.596C185.414 38.7714 186.038 38.5714 186.465 38.1714C186.912 37.7524 187.135 37.1905 187.135 36.4857C187.135 35.8 186.912 35.2476 186.465 34.8286C186.038 34.3905 185.414 34.1714 184.596 34.1714H180.829V30.3714H185.294C186.633 30.3714 187.804 30.6286 188.809 31.1429C189.832 31.6571 190.632 32.3619 191.209 33.2571C191.786 34.1524 192.074 35.2 192.074 36.4C192.074 37.6 191.776 38.6571 191.181 39.5714C190.604 40.4667 189.795 41.1714 188.753 41.6857C187.711 42.181 186.493 42.4286 185.099 42.4286H180.829ZM176.867 50.6286V30.3714H181.862V50.6286H176.867ZM187.582 50.6286L181.834 41.9429L186.326 40.8286L193.357 50.6286H187.582Z" fill="black"/>
<path d="M194.988 50.6286V30.3714H198.475L199.982 34.5143V50.6286H194.988ZM208.632 50.6286L197.08 35.6L198.475 30.3714L210.055 45.4L208.632 50.6286ZM208.632 50.6286L207.348 46.3714V30.3714H212.343V50.6286H208.632Z" fill="black"/>
<path d="M215.859 50.6286V30.3714H220.854V50.6286H215.859Z" fill="black"/>
<path d="M222.91 50.6286L230.583 30.3714H235.41L243 50.6286H237.783L232.062 33.6H233.876L228.017 50.6286H222.91Z" fill="black"/>
</g>
<defs>
<clipPath id="clip0_1_3">
<rect width="12" height="8" fill="white" transform="translate(760 36)"/>
</clipPath>
<clipPath id="clip1_1_3">
<rect width="170" height="21" fill="white" transform="translate(73 30)"/>
</clipPath>
</defs>
</svg>
